<svg width="15" height="14" viewBox="0 0 15 14" fill="none" xmlns="http://www.w3.org/2000/svg">
<path d="M1.29289 11.6066L0.585786 12.3137L2 13.7279L2.70711 13.0208L1.29289 11.6066ZM14.3137 1.00001C14.3137 0.447727 13.866 1.2137e-05 13.3137 1.18841e-05L4.31371 1.26849e-05C3.76142 1.23477e-05 3.31371 0.447728 3.31371 1.00001C3.31371 1.5523 3.76142 2.00001 4.31371 2.00001L12.3137 2.00001L12.3137 10C12.3137 10.5523 12.7614 11 13.3137 11C13.866 11 14.3137 10.5523 14.3137 10L14.3137 1.00001ZM2.70711 13.0208L14.0208 1.70712L12.6066 0.292906L1.29289 11.6066L2.70711 13.0208Z" fill="#BFBFBF"/>
</svg>
