<svg width="40" height="40" viewBox="0 0 40 40" fill="none" xmlns="http://www.w3.org/2000/svg">
<path d="M37 0H3C2.20435 0 1.44129 0.316071 0.87868 0.87868C0.316071 1.44129 0 2.20435 0 3V37C0 37.7957 0.316071 38.5587 0.87868 39.1213C1.44129 39.6839 2.20435 40 3 40H37C37.7957 40 38.5587 39.6839 39.1213 39.1213C39.6839 38.5587 40 37.7957 40 37V3C40 2.20435 39.6839 1.44129 39.1213 0.87868C38.5587 0.316071 37.7957 0 37 0ZM12 34H6V16H12V34ZM9 12.5C8.31237 12.4803 7.64577 12.2585 7.0835 11.8622C6.52123 11.4658 6.08823 10.9126 5.83859 10.2716C5.58895 9.63053 5.53375 8.93016 5.67988 8.25794C5.82601 7.58573 6.16699 6.97148 6.66023 6.49195C7.15346 6.01242 7.77707 5.68887 8.45313 5.56173C9.12919 5.43459 9.82773 5.50949 10.4615 5.77708C11.0952 6.04468 11.636 6.49309 12.0164 7.0663C12.3967 7.6395 12.5997 8.31208 12.6 9C12.5842 9.9407 12.1967 10.8369 11.5221 11.4927C10.8475 12.1486 9.94077 12.5107 9 12.5ZM34 34H28V24.52C28 21.68 26.8 20.66 25.24 20.66C24.7826 20.6905 24.3358 20.811 23.9251 21.0146C23.5144 21.2183 23.148 21.5011 22.847 21.8467C22.5459 22.1924 22.3161 22.5941 22.1708 23.0289C22.0254 23.4636 21.9674 23.9228 22 24.38C21.9901 24.4731 21.9901 24.5669 22 24.66V34H16V16H21.8V18.6C22.3851 17.71 23.1889 16.9851 24.1344 16.4949C25.0799 16.0046 26.1355 15.7653 27.2 15.8C30.3 15.8 33.92 17.52 33.92 23.12L34 34Z" fill="black"/>
</svg>
