<svg width="271" height="220" viewBox="0 0 271 220" fill="none" xmlns="http://www.w3.org/2000/svg">
<path d="M57.5275 71.0215C58.2718 70.6577 58.5804 69.7595 58.2167 69.0152C57.8529 68.2709 56.9547 67.9623 56.2104 68.3261L57.5275 71.0215ZM93.3694 108.174L93.7025 109.637L93.7025 109.637L93.3694 108.174ZM236.294 171.855C236.946 171.344 237.061 170.401 236.55 169.749L228.226 159.121C227.715 158.469 226.772 158.354 226.12 158.865C225.468 159.376 225.353 160.319 225.864 160.971L233.263 170.418L223.816 177.818C223.164 178.328 223.049 179.271 223.56 179.923C224.071 180.576 225.014 180.69 225.666 180.179L236.294 171.855ZM56.2104 68.3261C52.6502 70.0658 50.07 71.6795 48.4178 73.2086C46.8051 74.701 45.7558 76.4258 46.1371 78.3044C46.501 80.0972 48.0497 81.3391 49.7653 82.2315C51.5539 83.1619 53.9463 83.9318 56.7176 84.5907C67.7688 87.2184 86.3952 88.4144 102.483 89.6598C110.575 90.2862 118.037 90.9245 123.687 91.7568C126.517 92.1736 128.836 92.6313 130.53 93.1427C131.378 93.3986 132.022 93.6543 132.479 93.8998C132.705 94.0213 132.864 94.1292 132.971 94.2177C133.024 94.261 133.059 94.2961 133.082 94.3217C133.094 94.3343 133.102 94.344 133.107 94.3506C133.112 94.3573 133.114 94.3607 133.114 94.3607C133.111 94.3554 133.083 94.3047 133.078 94.2215C133.073 94.1393 133.094 94.0959 133.088 94.1099C133.059 94.1753 132.904 94.4217 132.372 94.821C131.32 95.6091 129.346 96.5928 126.156 97.7699C119.827 100.106 109.216 103.026 93.0362 106.711L93.7025 109.637C109.898 105.947 120.671 102.992 127.195 100.584C130.432 99.3897 132.753 98.2848 134.171 97.2214C134.873 96.695 135.498 96.075 135.83 95.3276C136.207 94.4785 136.152 93.5775 135.672 92.7932C135.252 92.1075 134.574 91.62 133.9 91.2575C133.2 90.8815 132.348 90.5577 131.397 90.2706C129.492 89.6959 127.004 89.213 124.124 88.7888C118.356 87.9392 110.793 87.2941 102.714 86.6687C86.4617 85.4106 68.1679 84.2296 57.4116 81.6721C54.7311 81.0347 52.6161 80.3328 51.1497 79.57C49.6102 78.7692 49.1561 78.0965 49.0771 77.7076C49.0156 77.4043 49.0834 76.6801 50.4554 75.4104C51.7878 74.1773 54.06 72.7159 57.5275 71.0215L56.2104 68.3261ZM93.0362 106.711C76.847 110.399 66.6399 114.194 61.3905 118.129C58.7531 120.106 57.1221 122.303 56.8921 124.756C56.6602 127.231 57.8969 129.479 59.8634 131.445C63.7499 135.332 71.3104 138.955 80.8917 142.328C90.5515 145.728 102.522 148.957 115.469 151.948C141.368 157.929 171.303 162.983 194.746 166.54C206.471 168.319 216.579 169.724 223.757 170.685C227.346 171.166 230.203 171.535 232.162 171.784C233.142 171.909 233.898 172.004 234.409 172.067C234.665 172.099 234.859 172.123 234.99 172.139C235.055 172.147 235.105 172.153 235.138 172.157C235.154 172.159 235.167 172.161 235.175 172.162C235.179 172.162 235.183 172.162 235.185 172.163C235.187 172.163 235.188 172.163 235.369 170.674C235.55 169.185 235.549 169.185 235.547 169.185C235.545 169.184 235.542 169.184 235.538 169.184C235.53 169.183 235.518 169.181 235.502 169.179C235.469 169.175 235.42 169.169 235.356 169.161C235.226 169.145 235.033 169.122 234.779 169.09C234.271 169.027 233.518 168.933 232.541 168.808C230.587 168.56 227.737 168.191 224.155 167.712C216.991 166.753 206.9 165.35 195.196 163.574C171.779 160.021 141.933 154.981 116.144 149.025C103.248 146.046 91.398 142.846 81.8879 139.498C72.2993 136.123 65.3404 132.68 61.9847 129.324C60.3301 127.669 59.765 126.252 59.879 125.036C59.9951 123.798 60.8577 122.278 63.19 120.529C67.8801 117.013 77.5168 113.324 93.7025 109.637L93.0362 106.711Z" fill="#ABA7B1"/>
<path d="M28.3203 3.96094C28.3203 4.19531 28.2161 4.3776 28.0078 4.50781C27.4609 4.84635 26.8099 5.11979 26.0547 5.32812C25.3255 5.51042 24.5703 5.66667 23.7891 5.79688C23.0078 5.90104 22.2266 5.99219 21.4453 6.07031C20.6901 6.1224 19.987 6.17448 19.3359 6.22656C18.2422 6.30469 17.1094 6.4349 15.9375 6.61719C14.7656 6.79948 13.7109 7.1901 12.7734 7.78906C12.6953 7.84115 12.5781 7.91927 12.4219 8.02344C12.2656 8.1276 12.1615 8.20573 12.1094 8.25781C11.849 8.54427 11.6536 8.89583 11.5234 9.3125C11.3932 9.72917 11.3281 10.1198 11.3281 10.4844C11.3281 11.2917 11.5365 11.9948 11.9531 12.5938C12.3698 13.1927 12.8776 13.7396 13.4766 14.2344C14.0234 14.6771 14.5573 15.1198 15.0781 15.5625C15.625 16.0052 16.1849 16.4479 16.7578 16.8906C17.3568 17.3594 17.9688 17.8672 18.5938 18.4141C19.2188 18.9609 19.7917 19.5469 20.3125 20.1719C20.8333 20.7969 21.25 21.474 21.5625 22.2031C21.901 22.9323 22.0703 23.7135 22.0703 24.5469C22.0703 25.6406 21.8099 26.6693 21.2891 27.6328C20.7682 28.5703 20.1693 29.4297 19.4922 30.2109C18.3203 31.5391 16.9271 32.5938 15.3125 33.375C13.724 34.1562 12.0312 34.5469 10.2344 34.5469C8.98438 34.5469 7.7474 34.3516 6.52344 33.9609C5.29948 33.5443 4.20573 32.9583 3.24219 32.2031C2.27865 31.4479 1.4974 30.5365 0.898438 29.4688C0.299479 28.375 0 27.138 0 25.7578C0 24.5859 0.234375 23.362 0.703125 22.0859C1.19792 20.7839 1.82292 19.6771 2.57812 18.7656C2.73438 18.6094 2.89062 18.5312 3.04688 18.5312C3.20312 18.5312 3.33333 18.5964 3.4375 18.7266C3.56771 18.8307 3.63281 18.9609 3.63281 19.1172C3.63281 19.2474 3.59375 19.3646 3.51562 19.4688C2.91667 20.3802 2.40885 21.3307 1.99219 22.3203C1.60156 23.3099 1.40625 24.3776 1.40625 25.5234C1.40625 26.6953 1.65365 27.737 2.14844 28.6484C2.66927 29.5339 3.33333 30.2891 4.14062 30.9141C4.97396 31.5391 5.91146 32.0078 6.95312 32.3203C7.99479 32.6328 9.04948 32.7891 10.1172 32.7891C11.7578 32.7891 13.2161 32.4505 14.4922 31.7734C15.7682 31.0703 16.9531 30.1328 18.0469 28.9609C18.6198 28.3099 19.1016 27.6328 19.4922 26.9297C19.8828 26.2266 20.0781 25.4193 20.0781 24.5078C20.0781 23.8307 19.9479 23.2318 19.6875 22.7109C19.4271 22.1901 19.0625 21.6823 18.5938 21.1875C18.099 20.6927 17.5911 20.237 17.0703 19.8203C16.5755 19.3776 16.0547 18.9349 15.5078 18.4922C14.987 18.1016 14.388 17.6589 13.7109 17.1641C13.0599 16.6693 12.4349 16.1484 11.8359 15.6016C11.237 15.0286 10.7031 14.4297 10.2344 13.8047C9.76562 13.1536 9.46615 12.4896 9.33594 11.8125C9.28385 11.6042 9.24479 11.3958 9.21875 11.1875C9.21875 10.9792 9.21875 10.7708 9.21875 10.5625C9.21875 9.70312 9.36198 8.9349 9.64844 8.25781C9.9349 7.58073 10.3255 7.00781 10.8203 6.53906C11.3411 6.04427 11.9401 5.64062 12.6172 5.32812C13.3203 5.01562 14.0755 4.78125 14.8828 4.625C15.612 4.49479 16.3411 4.42969 17.0703 4.42969C17.7995 4.40365 18.5286 4.36458 19.2578 4.3125C20.6641 4.23438 22.0573 4.16927 23.4375 4.11719C24.8177 4.0651 26.1849 3.81771 27.5391 3.375C27.5651 3.375 27.5911 3.375 27.6172 3.375C27.6432 3.34896 27.6823 3.33594 27.7344 3.33594C27.8906 3.33594 28.0208 3.40104 28.125 3.53125C28.2552 3.66146 28.3203 3.80469 28.3203 3.96094ZM41.7188 19.9375C41.7188 20.9271 41.6016 22.0078 41.3672 23.1797C41.1589 24.3516 40.8333 25.5234 40.3906 26.6953C39.9479 27.8672 39.401 29.013 38.75 30.1328C38.125 31.2266 37.3958 32.2031 36.5625 33.0625C35.7552 33.9219 34.8438 34.599 33.8281 35.0938C32.8385 35.6146 31.7708 35.875 30.625 35.875C29.7656 35.875 29.0234 35.6406 28.3984 35.1719C27.7734 34.7292 27.2396 34.1562 26.7969 33.4531C26.3802 32.75 26.0677 31.9948 25.8594 31.1875C25.651 30.3542 25.5469 29.5729 25.5469 28.8438C25.5469 27.9844 25.6641 27.138 25.8984 26.3047C26.6276 23.9089 27.7995 21.7734 29.4141 19.8984C31.0286 18.0234 32.9948 16.6172 35.3125 15.6797C35.3646 15.6536 35.4297 15.6406 35.5078 15.6406C35.6901 15.6406 35.8203 15.7057 35.8984 15.8359C36.0026 15.9661 36.0547 16.1094 36.0547 16.2656C36.0547 16.4479 35.9505 16.6042 35.7422 16.7344C35.3776 16.9427 35.013 17.151 34.6484 17.3594C34.2839 17.5417 33.9193 17.776 33.5547 18.0625C32.1224 19.1042 30.8984 20.3932 29.8828 21.9297C28.8672 23.4661 28.099 25.0807 27.5781 26.7734C27.3958 27.3203 27.3047 27.9323 27.3047 28.6094C27.3047 29.1562 27.3828 29.7422 27.5391 30.3672C27.6953 30.9922 27.9297 31.5781 28.2422 32.125C28.5547 32.6458 28.9453 33.0885 29.4141 33.4531C29.9089 33.7917 30.4818 33.9609 31.1328 33.9609C31.5495 33.9609 31.9401 33.8828 32.3047 33.7266C32.6953 33.5703 33.0599 33.375 33.3984 33.1406C34.388 32.4375 35.2734 31.526 36.0547 30.4062C36.8359 29.2865 37.5 28.0885 38.0469 26.8125C38.5938 25.5104 39.0104 24.1953 39.2969 22.8672C39.5833 21.513 39.7266 20.237 39.7266 19.0391V18.5703C39.6745 17.8932 39.4401 17.3203 39.0234 16.8516C38.6328 16.3828 38.138 16.0052 37.5391 15.7188C37.3568 15.6406 37.1745 15.5755 36.9922 15.5234C36.8359 15.4714 36.6797 15.4062 36.5234 15.3281C36.263 15.224 36.1328 15.0417 36.1328 14.7812C36.1328 14.599 36.1849 14.4427 36.2891 14.3125C36.3932 14.1823 36.5365 14.1302 36.7188 14.1562H36.7578C37.3307 14.2083 37.8906 14.3385 38.4375 14.5469C39.0104 14.7552 39.5182 15.0417 39.9609 15.4062C40.4036 15.7708 40.7682 16.2005 41.0547 16.6953C41.3672 17.1901 41.5625 17.75 41.6406 18.375C41.6927 18.6354 41.7188 18.8958 41.7188 19.1562C41.7188 19.3906 41.7188 19.651 41.7188 19.9375ZM64.4141 3.0625C64.4141 3.34896 64.2708 3.54427 63.9844 3.64844C63.5417 3.83073 63.125 3.98698 62.7344 4.11719C62.3698 4.22135 61.9661 4.3776 61.5234 4.58594C60.4818 5.10677 59.5312 5.75781 58.6719 6.53906C57.8385 7.29427 57.0703 8.1276 56.3672 9.03906C55.6901 9.95052 55.0781 10.9141 54.5312 11.9297C54.0104 12.9453 53.5417 13.974 53.125 15.0156L53.0859 15.1328C53.6068 15.0547 54.1146 14.9766 54.6094 14.8984C55.1302 14.8203 55.651 14.7812 56.1719 14.7812C56.4323 14.7812 56.7839 14.8073 57.2266 14.8594C57.6693 14.8854 58.0078 14.9505 58.2422 15.0547C58.3464 15.1068 58.4245 15.2109 58.4766 15.3672C58.5547 15.5234 58.5938 15.6536 58.5938 15.7578C58.5938 15.8359 58.5677 15.9271 58.5156 16.0312C58.4896 16.1094 58.4245 16.1745 58.3203 16.2266C57.4089 16.6432 56.4062 16.9036 55.3125 17.0078C54.2188 17.0859 53.1771 17.1771 52.1875 17.2812C51.276 19.5729 50.4297 21.8646 49.6484 24.1562C48.8672 26.4479 48.0859 28.7656 47.3047 31.1094C46.7578 32.75 46.25 34.4036 45.7812 36.0703C45.3125 37.737 44.8047 39.3776 44.2578 40.9922C43.7109 42.6328 43.0859 44.2344 42.3828 45.7969C41.6797 47.3854 40.8333 48.8958 39.8438 50.3281C39.375 50.9792 38.8542 51.5911 38.2812 52.1641C37.6823 52.763 37.0443 53.2839 36.3672 53.7266C35.6641 54.1693 34.9219 54.5208 34.1406 54.7812C33.3594 55.0417 32.5651 55.1719 31.7578 55.1719C30.7682 55.1719 29.7917 54.9896 28.8281 54.625C27.8385 54.2865 26.9141 53.8307 26.0547 53.2578C25.1693 52.6849 24.362 52.0208 23.6328 51.2656C22.9036 50.5104 22.2917 49.7161 21.7969 48.8828C21.7448 48.7266 21.7188 48.6224 21.7188 48.5703C21.7188 48.4141 21.7839 48.2839 21.9141 48.1797C22.0182 48.0755 22.1484 48.0234 22.3047 48.0234C22.487 48.0234 22.6562 48.1016 22.8125 48.2578C23.0208 48.5443 23.2161 48.8047 23.3984 49.0391C23.5807 49.2995 23.776 49.5599 23.9844 49.8203C24.8698 50.7578 25.8724 51.5651 26.9922 52.2422C28.112 52.9193 29.3229 53.362 30.625 53.5703C30.7812 53.5964 30.9375 53.6094 31.0938 53.6094C31.25 53.6354 31.4062 53.6484 31.5625 53.6484C32.5781 53.6484 33.5286 53.4271 34.4141 52.9844C35.2734 52.5677 36.0677 51.9948 36.7969 51.2656C37.526 50.5625 38.1901 49.7422 38.7891 48.8047C39.362 47.8672 39.8958 46.9036 40.3906 45.9141C40.8594 44.9245 41.276 43.9349 41.6406 42.9453C41.9792 41.9818 42.2786 41.0964 42.5391 40.2891C43.0599 38.6484 43.5417 37.0078 43.9844 35.3672C44.4271 33.7526 44.9089 32.125 45.4297 30.4844C46.1589 28.2969 46.862 26.1354 47.5391 24C48.2422 21.8385 48.9974 19.6901 49.8047 17.5547C48.9453 17.6328 48.0859 17.6979 47.2266 17.75C46.3672 17.8021 45.5078 17.8281 44.6484 17.8281C44.5443 17.8281 44.4401 17.75 44.3359 17.5938C44.2578 17.4115 44.2188 17.2682 44.2188 17.1641C44.2188 16.9036 44.3229 16.7344 44.5312 16.6562C44.8438 16.5781 45.1562 16.513 45.4688 16.4609C45.8073 16.4089 46.1328 16.3568 46.4453 16.3047C47.1224 16.1745 47.8125 16.0573 48.5156 15.9531C49.2188 15.8229 49.9219 15.6927 50.625 15.5625C50.7031 15.3281 50.7812 15.1068 50.8594 14.8984C50.9635 14.6641 51.0677 14.4427 51.1719 14.2344C51.7188 12.8542 52.3828 11.5 53.1641 10.1719C53.9453 8.81771 54.8438 7.60677 55.8594 6.53906C56.901 5.44531 58.0729 4.53385 59.375 3.80469C60.6771 3.07552 62.1094 2.63281 63.6719 2.47656H63.8281C63.9844 2.47656 64.1146 2.54167 64.2188 2.67188C64.349 2.77604 64.4141 2.90625 64.4141 3.0625ZM66.9531 8.41406C66.9531 8.46615 66.9401 8.50521 66.9141 8.53125C66.9141 8.55729 66.9141 8.58333 66.9141 8.60938C66.1068 10.4062 65.2734 12.1901 64.4141 13.9609C63.5547 15.7057 62.7865 17.5156 62.1094 19.3906C62.3958 19.3906 62.6693 19.3906 62.9297 19.3906C63.1901 19.3646 63.4635 19.3516 63.75 19.3516C63.8802 19.3516 64.0234 19.3516 64.1797 19.3516C64.362 19.3255 64.5182 19.3385 64.6484 19.3906C64.8047 19.4167 64.9349 19.4818 65.0391 19.5859C65.1432 19.6641 65.1953 19.8073 65.1953 20.0156C65.1953 20.276 65.0911 20.4453 64.8828 20.5234C64.7005 20.5755 64.4531 20.6406 64.1406 20.7188C63.8542 20.7708 63.5417 20.8229 63.2031 20.875C62.8906 20.9271 62.5781 20.9792 62.2656 21.0312C61.9792 21.0573 61.7318 21.0833 61.5234 21.1094C61.2891 21.7865 61.0677 22.5417 60.8594 23.375C60.651 24.1823 60.4688 25.0286 60.3125 25.9141C60.1562 26.7734 60.026 27.6328 59.9219 28.4922C59.8177 29.3255 59.7656 30.0938 59.7656 30.7969C59.7656 30.9792 59.7656 31.2656 59.7656 31.6562C59.7917 32.0208 59.8307 32.3854 59.8828 32.75C59.9609 33.1146 60.0651 33.4401 60.1953 33.7266C60.3516 34.013 60.5599 34.1562 60.8203 34.1562C61.1849 34.1562 61.6016 33.974 62.0703 33.6094C62.5391 33.2448 62.9948 32.8281 63.4375 32.3594C63.9062 31.8646 64.3359 31.3828 64.7266 30.9141C65.1432 30.4193 65.4818 30.0417 65.7422 29.7812C65.8464 29.6771 65.9635 29.625 66.0938 29.625C66.25 29.625 66.3932 29.6901 66.5234 29.8203C66.6797 29.9505 66.7578 30.0938 66.7578 30.25C66.7578 30.3281 66.7188 30.4193 66.6406 30.5234C66.3542 30.9401 65.9766 31.4609 65.5078 32.0859C65.0651 32.6849 64.5703 33.2708 64.0234 33.8438C63.5026 34.3906 62.9427 34.8594 62.3438 35.25C61.7708 35.6406 61.2109 35.8359 60.6641 35.8359C60.0651 35.8359 59.5833 35.6276 59.2188 35.2109C58.8542 34.7943 58.5677 34.2995 58.3594 33.7266C58.1771 33.1276 58.0469 32.5156 57.9688 31.8906C57.9167 31.2396 57.8906 30.6927 57.8906 30.25C57.8906 29.625 57.9297 28.9219 58.0078 28.1406C58.112 27.3594 58.2292 26.5651 58.3594 25.7578C58.4896 24.9505 58.6458 24.1693 58.8281 23.4141C59.0104 22.6328 59.1797 21.9297 59.3359 21.3047C59.1276 21.3047 58.9193 21.3177 58.7109 21.3438C58.5286 21.3438 58.3333 21.3438 58.125 21.3438C57.5781 21.3438 57.0182 21.3307 56.4453 21.3047C55.8724 21.2786 55.3125 21.2266 54.7656 21.1484C54.2188 21.0443 53.6849 20.888 53.1641 20.6797C52.6432 20.4453 52.1745 20.1328 51.7578 19.7422C51.6536 19.6641 51.6016 19.5469 51.6016 19.3906C51.6016 19.3385 51.6797 19.2083 51.8359 19C51.9922 18.7656 52.0964 18.6484 52.1484 18.6484C53.112 18.6484 54.0625 18.7526 55 18.9609C55.9375 19.1693 56.888 19.2995 57.8516 19.3516C58.1641 19.3776 58.4766 19.3906 58.7891 19.3906C59.1276 19.3906 59.4661 19.3906 59.8047 19.3906H59.9219C60.2083 18.5052 60.5599 17.5417 60.9766 16.5C61.3932 15.4583 61.862 14.4297 62.3828 13.4141C62.9036 12.3984 63.4505 11.4219 64.0234 10.4844C64.6224 9.52083 65.2344 8.6875 65.8594 7.98438C66.0156 7.88021 66.1458 7.82812 66.25 7.82812C66.4062 7.82812 66.5625 7.89323 66.7188 8.02344C66.875 8.1276 66.9531 8.25781 66.9531 8.41406ZM81.5625 17.7109C81.5625 18.362 81.4062 19.013 81.0938 19.6641C80.7812 20.2891 80.3776 20.888 79.8828 21.4609C79.4141 22.0339 78.8932 22.5547 78.3203 23.0234C77.7474 23.4922 77.2135 23.8958 76.7188 24.2344C75.9635 24.7552 75.1693 25.237 74.3359 25.6797C73.5286 26.1224 72.6432 26.3438 71.6797 26.3438C71.4714 26.3438 71.237 26.3177 70.9766 26.2656C70.7422 26.2135 70.625 26.0443 70.625 25.7578C70.625 25.3932 70.7943 25.1719 71.1328 25.0938C71.2109 25.0677 71.3021 25.0547 71.4062 25.0547C71.5104 25.0547 71.6146 25.0417 71.7188 25.0156C72.0052 24.9635 72.2786 24.8724 72.5391 24.7422C72.8255 24.612 73.112 24.4688 73.3984 24.3125C73.8411 24.026 74.401 23.6224 75.0781 23.1016C75.7552 22.5807 76.4193 22.0078 77.0703 21.3828C77.7214 20.7578 78.2682 20.1198 78.7109 19.4688C79.1797 18.8177 79.4141 18.2057 79.4141 17.6328C79.4141 17.2682 79.2188 17.0859 78.8281 17.0859C78.6719 17.0859 78.5156 17.112 78.3594 17.1641C78.2031 17.2161 78.0469 17.2682 77.8906 17.3203C76.6406 17.737 75.4948 18.375 74.4531 19.2344C73.4115 20.0677 72.513 21.0443 71.7578 22.1641C71.0026 23.2839 70.4036 24.4818 69.9609 25.7578C69.5443 27.0339 69.3359 28.3099 69.3359 29.5859C69.3359 30.0026 69.362 30.4844 69.4141 31.0312C69.4922 31.5521 69.6224 32.0469 69.8047 32.5156C70.013 32.9844 70.2865 33.388 70.625 33.7266C70.9635 34.0391 71.4062 34.1953 71.9531 34.1953C72.1615 34.1953 72.3568 34.1562 72.5391 34.0781C72.7214 34.026 72.9036 33.9479 73.0859 33.8438C73.7891 33.4531 74.4401 32.9323 75.0391 32.2812C75.638 31.6042 76.1719 30.9271 76.6406 30.25C76.7708 30.0938 76.888 29.9245 76.9922 29.7422C77.1224 29.5599 77.2526 29.3776 77.3828 29.1953C77.4609 29.0651 77.5911 29 77.7734 29C77.9297 29 78.0729 29.0521 78.2031 29.1562C78.3594 29.2604 78.4375 29.4036 78.4375 29.5859C78.4375 29.638 78.4115 29.7161 78.3594 29.8203C78.0469 30.3932 77.6562 31.0312 77.1875 31.7344C76.7188 32.4115 76.1979 33.0495 75.625 33.6484C75.0521 34.2474 74.4271 34.7422 73.75 35.1328C73.099 35.5495 72.4089 35.7578 71.6797 35.7578C70.8724 35.7578 70.1953 35.5234 69.6484 35.0547C69.1276 34.612 68.7109 34.0651 68.3984 33.4141C68.0859 32.737 67.8646 32.0208 67.7344 31.2656C67.6042 30.4844 67.5391 29.7812 67.5391 29.1562C67.5391 27.1771 67.9557 25.2891 68.7891 23.4922C69.6224 21.6693 70.7422 20.0677 72.1484 18.6875C72.5651 18.2708 73.0469 17.8542 73.5938 17.4375C74.1406 16.9948 74.7135 16.6042 75.3125 16.2656C75.9375 15.901 76.5625 15.6146 77.1875 15.4062C77.8385 15.1719 78.4635 15.0547 79.0625 15.0547C79.8177 15.0547 80.4167 15.3151 80.8594 15.8359C81.3281 16.3307 81.5625 16.9557 81.5625 17.7109ZM96.6406 18.375C96.6406 18.5833 96.6276 18.7786 96.6016 18.9609C96.5755 19.1432 96.5365 19.3385 96.4844 19.5469C96.4323 19.7552 96.2891 19.8594 96.0547 19.8594C95.9505 19.8594 95.7943 19.8203 95.5859 19.7422C95.4036 19.638 95.3125 19.5339 95.3125 19.4297L95.3516 19.0781C95.3516 18.8958 95.3255 18.6745 95.2734 18.4141C95.2474 18.1536 95.1823 17.9062 95.0781 17.6719C95 17.4115 94.8828 17.2031 94.7266 17.0469C94.5703 16.8646 94.362 16.7734 94.1016 16.7734C93.4766 16.7734 92.8125 16.9688 92.1094 17.3594C91.4062 17.724 90.8073 18.0885 90.3125 18.4531C90.1042 18.6094 89.8177 18.8438 89.4531 19.1562C89.0885 19.4688 88.7109 19.8073 88.3203 20.1719C87.9297 20.5365 87.5651 20.888 87.2266 21.2266C86.9141 21.5651 86.6927 21.8385 86.5625 22.0469C86.4844 22.151 86.3802 22.3464 86.25 22.6328C86.1458 22.8932 86.0286 23.1797 85.8984 23.4922C85.7943 23.8047 85.6771 24.1042 85.5469 24.3906C85.4427 24.6771 85.3516 24.8984 85.2734 25.0547C84.7526 26.3047 84.2448 27.5547 83.75 28.8047C83.2812 30.0547 82.8385 31.3177 82.4219 32.5938C82.2135 33.1927 82.0182 33.8047 81.8359 34.4297C81.6797 35.0807 81.4974 35.7057 81.2891 36.3047C81.1849 36.513 81.0547 36.6172 80.8984 36.6172C80.7943 36.6172 80.638 36.5521 80.4297 36.4219C80.2474 36.3177 80.1562 36.2135 80.1562 36.1094C80.1562 35.8229 80.1953 35.4974 80.2734 35.1328C80.3776 34.7682 80.4557 34.4427 80.5078 34.1562C80.8464 32.4635 81.263 30.7969 81.7578 29.1562C82.2526 27.5156 82.8255 25.901 83.4766 24.3125C83.7109 23.6875 83.9844 22.9453 84.2969 22.0859C84.6354 21.2266 84.987 20.3542 85.3516 19.4688C85.7161 18.5573 86.0938 17.7109 86.4844 16.9297C86.901 16.1224 87.3177 15.4844 87.7344 15.0156C87.8385 14.9115 87.9557 14.8594 88.0859 14.8594C88.1901 14.8594 88.3333 14.9245 88.5156 15.0547C88.724 15.1589 88.8281 15.276 88.8281 15.4062C88.8281 15.4844 88.8021 15.6276 88.75 15.8359C88.6979 16.0182 88.6458 16.2266 88.5938 16.4609C88.5417 16.6693 88.4766 16.8776 88.3984 17.0859C88.3464 17.2682 88.3073 17.3984 88.2812 17.4766C89.1146 16.8516 89.987 16.2917 90.8984 15.7969C91.8099 15.3021 92.8125 15.0547 93.9062 15.0547C94.375 15.0547 94.7786 15.1589 95.1172 15.3672C95.4557 15.5495 95.7422 15.7969 95.9766 16.1094C96.2109 16.4219 96.3802 16.7734 96.4844 17.1641C96.5885 17.5547 96.6406 17.9583 96.6406 18.375ZM133.945 3.96094C133.945 4.19531 133.841 4.3776 133.633 4.50781C133.086 4.84635 132.435 5.11979 131.68 5.32812C130.951 5.51042 130.195 5.66667 129.414 5.79688C128.633 5.90104 127.852 5.99219 127.07 6.07031C126.315 6.1224 125.612 6.17448 124.961 6.22656C123.867 6.30469 122.734 6.4349 121.562 6.61719C120.391 6.79948 119.336 7.1901 118.398 7.78906C118.32 7.84115 118.203 7.91927 118.047 8.02344C117.891 8.1276 117.786 8.20573 117.734 8.25781C117.474 8.54427 117.279 8.89583 117.148 9.3125C117.018 9.72917 116.953 10.1198 116.953 10.4844C116.953 11.2917 117.161 11.9948 117.578 12.5938C117.995 13.1927 118.503 13.7396 119.102 14.2344C119.648 14.6771 120.182 15.1198 120.703 15.5625C121.25 16.0052 121.81 16.4479 122.383 16.8906C122.982 17.3594 123.594 17.8672 124.219 18.4141C124.844 18.9609 125.417 19.5469 125.938 20.1719C126.458 20.7969 126.875 21.474 127.188 22.2031C127.526 22.9323 127.695 23.7135 127.695 24.5469C127.695 25.6406 127.435 26.6693 126.914 27.6328C126.393 28.5703 125.794 29.4297 125.117 30.2109C123.945 31.5391 122.552 32.5938 120.938 33.375C119.349 34.1562 117.656 34.5469 115.859 34.5469C114.609 34.5469 113.372 34.3516 112.148 33.9609C110.924 33.5443 109.831 32.9583 108.867 32.2031C107.904 31.4479 107.122 30.5365 106.523 29.4688C105.924 28.375 105.625 27.138 105.625 25.7578C105.625 24.5859 105.859 23.362 106.328 22.0859C106.823 20.7839 107.448 19.6771 108.203 18.7656C108.359 18.6094 108.516 18.5312 108.672 18.5312C108.828 18.5312 108.958 18.5964 109.062 18.7266C109.193 18.8307 109.258 18.9609 109.258 19.1172C109.258 19.2474 109.219 19.3646 109.141 19.4688C108.542 20.3802 108.034 21.3307 107.617 22.3203C107.227 23.3099 107.031 24.3776 107.031 25.5234C107.031 26.6953 107.279 27.737 107.773 28.6484C108.294 29.5339 108.958 30.2891 109.766 30.9141C110.599 31.5391 111.536 32.0078 112.578 32.3203C113.62 32.6328 114.674 32.7891 115.742 32.7891C117.383 32.7891 118.841 32.4505 120.117 31.7734C121.393 31.0703 122.578 30.1328 123.672 28.9609C124.245 28.3099 124.727 27.6328 125.117 26.9297C125.508 26.2266 125.703 25.4193 125.703 24.5078C125.703 23.8307 125.573 23.2318 125.312 22.7109C125.052 22.1901 124.688 21.6823 124.219 21.1875C123.724 20.6927 123.216 20.237 122.695 19.8203C122.201 19.3776 121.68 18.9349 121.133 18.4922C120.612 18.1016 120.013 17.6589 119.336 17.1641C118.685 16.6693 118.06 16.1484 117.461 15.6016C116.862 15.0286 116.328 14.4297 115.859 13.8047C115.391 13.1536 115.091 12.4896 114.961 11.8125C114.909 11.6042 114.87 11.3958 114.844 11.1875C114.844 10.9792 114.844 10.7708 114.844 10.5625C114.844 9.70312 114.987 8.9349 115.273 8.25781C115.56 7.58073 115.951 7.00781 116.445 6.53906C116.966 6.04427 117.565 5.64062 118.242 5.32812C118.945 5.01562 119.701 4.78125 120.508 4.625C121.237 4.49479 121.966 4.42969 122.695 4.42969C123.424 4.40365 124.154 4.36458 124.883 4.3125C126.289 4.23438 127.682 4.16927 129.062 4.11719C130.443 4.0651 131.81 3.81771 133.164 3.375C133.19 3.375 133.216 3.375 133.242 3.375C133.268 3.34896 133.307 3.33594 133.359 3.33594C133.516 3.33594 133.646 3.40104 133.75 3.53125C133.88 3.66146 133.945 3.80469 133.945 3.96094ZM147.734 35.3281C147.734 35.5365 147.643 35.6797 147.461 35.7578C147.07 35.888 146.641 35.9922 146.172 36.0703C145.729 36.1745 145.299 36.2266 144.883 36.2266C143.867 36.2266 143.034 35.9922 142.383 35.5234C141.758 35.0547 141.237 34.4557 140.82 33.7266C140.404 32.9974 140.052 32.1771 139.766 31.2656C139.505 30.3542 139.219 29.4427 138.906 28.5312C138.62 27.6198 138.268 26.7604 137.852 25.9531C137.435 25.1458 136.888 24.4948 136.211 24L135.898 24.1953C135.378 25.9401 134.857 27.6719 134.336 29.3906C133.815 31.0833 133.229 32.776 132.578 34.4688C132.37 34.9896 132.135 35.5755 131.875 36.2266C131.641 36.8776 131.38 37.4505 131.094 37.9453C131.016 38.1276 130.859 38.2188 130.625 38.2188C130.495 38.2188 130.352 38.1536 130.195 38.0234C130.039 37.9193 129.961 37.7891 129.961 37.6328C129.961 37.6068 129.974 37.5156 130 37.3594C130.052 37.2031 130.091 37.0208 130.117 36.8125C130.169 36.6302 130.208 36.4479 130.234 36.2656C130.286 36.1094 130.312 36.0052 130.312 35.9531C130.911 33.3229 131.628 30.7448 132.461 28.2188C133.294 25.6927 134.115 23.1406 134.922 20.5625C136.328 16.0052 137.773 11.474 139.258 6.96875C139.518 6.21354 139.766 5.45833 140 4.70312C140.26 3.94792 140.521 3.19271 140.781 2.4375C140.885 2.125 140.977 1.79948 141.055 1.46094C141.159 1.1224 141.276 0.796875 141.406 0.484375C141.536 0.276042 141.693 0.171875 141.875 0.171875C142.005 0.171875 142.148 0.236979 142.305 0.367188C142.461 0.471354 142.539 0.601562 142.539 0.757812V0.796875C141.628 4.41667 140.651 7.9974 139.609 11.5391C138.594 15.0547 137.552 18.5964 136.484 22.1641C137.214 21.5651 137.943 20.9661 138.672 20.3672C139.401 19.7682 140.117 19.1562 140.82 18.5312C141.576 17.8542 142.279 17.112 142.93 16.3047C143.607 15.4714 144.323 14.7552 145.078 14.1562C145.13 14.1302 145.182 14.1042 145.234 14.0781C145.286 14.0521 145.339 14.0391 145.391 14.0391C145.469 14.0391 145.612 14.1302 145.82 14.3125C146.029 14.4688 146.133 14.5859 146.133 14.6641C146.133 14.7161 146.094 14.8724 146.016 15.1328C145.938 15.3672 145.885 15.5234 145.859 15.6016C145.495 16.513 144.961 17.3203 144.258 18.0234C143.581 18.7266 142.865 19.3906 142.109 20.0156C141.432 20.5885 140.716 21.1354 139.961 21.6562C139.206 22.151 138.451 22.6328 137.695 23.1016C138.346 23.4141 138.88 23.8438 139.297 24.3906C139.714 24.9375 140.052 25.5495 140.312 26.2266C140.599 26.8776 140.833 27.5807 141.016 28.3359C141.198 29.0651 141.38 29.7812 141.562 30.4844C141.745 31.1875 141.953 31.8385 142.188 32.4375C142.448 33.0365 142.786 33.5443 143.203 33.9609C143.516 34.2734 143.88 34.4818 144.297 34.5859C144.714 34.7161 145.143 34.7812 145.586 34.7812C145.872 34.7812 146.146 34.7552 146.406 34.7031C146.667 34.651 146.927 34.625 147.188 34.625C147.292 34.625 147.409 34.7161 147.539 34.8984C147.669 35.0807 147.734 35.224 147.734 35.3281ZM157.305 4.89844C157.305 5.05469 157.24 5.23698 157.109 5.44531L157.07 5.5625C157.122 5.71875 157.148 5.83594 157.148 5.91406C156.966 6.04427 156.836 6.1875 156.758 6.34375C156.68 6.47396 156.497 6.53906 156.211 6.53906C155.977 6.53906 155.742 6.44792 155.508 6.26562C155.273 6.05729 155.156 5.8099 155.156 5.52344C155.156 5.05469 155.195 4.67708 155.273 4.39062C155.378 4.07812 155.729 3.92188 156.328 3.92188C156.562 3.92188 156.784 4.02604 156.992 4.23438C157.201 4.44271 157.305 4.66406 157.305 4.89844ZM157.031 29.8203C157.031 29.9505 156.992 30.0547 156.914 30.1328C156.419 30.7318 155.938 31.3307 155.469 31.9297C155.026 32.5026 154.544 33.0365 154.023 33.5312C153.529 34.026 152.969 34.4427 152.344 34.7812C151.719 35.1458 151.003 35.4062 150.195 35.5625C149.492 35.25 149.01 34.8333 148.75 34.3125C148.49 33.8177 148.359 33.2057 148.359 32.4766V31.0703C148.359 30.3932 148.424 29.6901 148.555 28.9609C148.711 28.2318 148.867 27.5286 149.023 26.8516C149.258 25.8359 149.518 24.7422 149.805 23.5703C150.117 22.3984 150.469 21.2396 150.859 20.0938C151.276 18.9219 151.745 17.8021 152.266 16.7344C152.786 15.6406 153.372 14.6901 154.023 13.8828C154.154 13.7526 154.284 13.6875 154.414 13.6875C154.57 13.6875 154.727 13.7526 154.883 13.8828C155.039 13.987 155.117 14.1302 155.117 14.3125V14.3906C154.674 15.7708 154.167 17.2292 153.594 18.7656C153.047 20.276 152.513 21.8255 151.992 23.4141C151.497 24.9766 151.068 26.5391 150.703 28.1016C150.365 29.6641 150.195 31.1745 150.195 32.6328C150.195 32.7891 150.195 33.0104 150.195 33.2969C150.221 33.5833 150.312 33.7656 150.469 33.8438C151.042 33.7396 151.641 33.4401 152.266 32.9453C152.917 32.4505 153.516 31.9297 154.062 31.3828C154.635 30.8359 155.13 30.3411 155.547 29.8984C155.964 29.4557 156.25 29.2344 156.406 29.2344C156.536 29.2344 156.667 29.2995 156.797 29.4297C156.953 29.5599 157.031 29.6901 157.031 29.8203ZM170.195 31.4609C170.195 31.5911 170.143 31.7083 170.039 31.8125C169.622 32.2031 169.115 32.6458 168.516 33.1406C167.917 33.6354 167.279 34.0911 166.602 34.5078C165.951 34.9245 165.273 35.276 164.57 35.5625C163.893 35.849 163.268 35.9922 162.695 35.9922C161.862 35.9922 161.211 35.7839 160.742 35.3672C160.273 34.9505 159.909 34.4427 159.648 33.8438C159.414 33.2188 159.258 32.5547 159.18 31.8516C159.128 31.1224 159.102 30.4453 159.102 29.8203C159.102 28.362 159.245 26.9297 159.531 25.5234C159.818 24.1172 160.13 22.7109 160.469 21.3047C161.12 18.5703 161.901 15.901 162.812 13.2969C163.75 10.6927 164.922 8.16667 166.328 5.71875C166.589 5.25 166.849 4.78125 167.109 4.3125C167.396 3.84375 167.695 3.40104 168.008 2.98438C168.112 2.82812 168.255 2.75 168.438 2.75C168.594 2.75 168.737 2.80208 168.867 2.90625C169.023 3.01042 169.102 3.15365 169.102 3.33594C169.102 3.41406 169.089 3.47917 169.062 3.53125C167.891 6.55208 166.68 9.5599 165.43 12.5547C164.18 15.5495 163.164 18.6224 162.383 21.7734C162.018 23.1797 161.68 24.612 161.367 26.0703C161.081 27.5026 160.938 28.9609 160.938 30.4453C160.938 30.8359 160.938 31.2656 160.938 31.7344C160.964 32.1771 161.029 32.5938 161.133 32.9844C161.263 33.375 161.458 33.7135 161.719 34C162.005 34.2604 162.409 34.3906 162.93 34.3906C163.503 34.3906 164.141 34.2083 164.844 33.8438C165.573 33.4792 166.263 33.0755 166.914 32.6328C167.591 32.1641 168.177 31.7474 168.672 31.3828C169.167 31.0182 169.466 30.8359 169.57 30.8359C169.727 30.8359 169.87 30.901 170 31.0312C170.13 31.1615 170.195 31.3047 170.195 31.4609ZM182.109 31.4609C182.109 31.5911 182.057 31.7083 181.953 31.8125C181.536 32.2031 181.029 32.6458 180.43 33.1406C179.831 33.6354 179.193 34.0911 178.516 34.5078C177.865 34.9245 177.188 35.276 176.484 35.5625C175.807 35.849 175.182 35.9922 174.609 35.9922C173.776 35.9922 173.125 35.7839 172.656 35.3672C172.188 34.9505 171.823 34.4427 171.562 33.8438C171.328 33.2188 171.172 32.5547 171.094 31.8516C171.042 31.1224 171.016 30.4453 171.016 29.8203C171.016 28.362 171.159 26.9297 171.445 25.5234C171.732 24.1172 172.044 22.7109 172.383 21.3047C173.034 18.5703 173.815 15.901 174.727 13.2969C175.664 10.6927 176.836 8.16667 178.242 5.71875C178.503 5.25 178.763 4.78125 179.023 4.3125C179.31 3.84375 179.609 3.40104 179.922 2.98438C180.026 2.82812 180.169 2.75 180.352 2.75C180.508 2.75 180.651 2.80208 180.781 2.90625C180.938 3.01042 181.016 3.15365 181.016 3.33594C181.016 3.41406 181.003 3.47917 180.977 3.53125C179.805 6.55208 178.594 9.5599 177.344 12.5547C176.094 15.5495 175.078 18.6224 174.297 21.7734C173.932 23.1797 173.594 24.612 173.281 26.0703C172.995 27.5026 172.852 28.9609 172.852 30.4453C172.852 30.8359 172.852 31.2656 172.852 31.7344C172.878 32.1771 172.943 32.5938 173.047 32.9844C173.177 33.375 173.372 33.7135 173.633 34C173.919 34.2604 174.323 34.3906 174.844 34.3906C175.417 34.3906 176.055 34.2083 176.758 33.8438C177.487 33.4792 178.177 33.0755 178.828 32.6328C179.505 32.1641 180.091 31.7474 180.586 31.3828C181.081 31.0182 181.38 30.8359 181.484 30.8359C181.641 30.8359 181.784 30.901 181.914 31.0312C182.044 31.1615 182.109 31.3047 182.109 31.4609ZM197.93 15.25C197.93 15.5885 197.773 15.7839 197.461 15.8359C197.331 15.888 197.201 15.9141 197.07 15.9141C196.966 15.888 196.849 15.888 196.719 15.9141C196.406 15.9401 196.094 15.9792 195.781 16.0312C195.495 16.0833 195.195 16.1354 194.883 16.1875C193.477 16.474 192.096 16.9427 190.742 17.5938C189.414 18.2188 188.255 19.0521 187.266 20.0938C186.979 20.4062 186.745 20.7448 186.562 21.1094C186.406 21.4479 186.328 21.8385 186.328 22.2812C186.328 22.5677 186.484 22.7891 186.797 22.9453C187.109 23.1016 187.487 23.2578 187.93 23.4141C188.398 23.5703 188.893 23.7396 189.414 23.9219C189.961 24.1042 190.456 24.3646 190.898 24.7031C191.367 25.0417 191.758 25.4844 192.07 26.0312C192.383 26.5521 192.539 27.2292 192.539 28.0625C192.539 29.026 192.357 29.9505 191.992 30.8359C191.628 31.7214 191.12 32.5156 190.469 33.2188C189.818 33.8958 189.062 34.4297 188.203 34.8203C187.344 35.237 186.432 35.4453 185.469 35.4453C184.557 35.4453 183.75 35.25 183.047 34.8594C182.37 34.4688 181.797 33.9609 181.328 33.3359C180.859 32.7109 180.508 32.0078 180.273 31.2266C180.039 30.4193 179.922 29.599 179.922 28.7656C179.922 28.6094 179.922 28.4141 179.922 28.1797C179.948 27.9193 179.974 27.6719 180 27.4375C180.052 27.2031 180.13 26.9948 180.234 26.8125C180.339 26.6302 180.495 26.5391 180.703 26.5391C180.833 26.5391 180.964 26.5911 181.094 26.6953C181.25 26.7995 181.328 26.9297 181.328 27.0859C181.328 27.6849 181.393 28.349 181.523 29.0781C181.68 29.8073 181.914 30.4844 182.227 31.1094C182.539 31.7344 182.956 32.2682 183.477 32.7109C183.997 33.1276 184.635 33.3359 185.391 33.3359C186.068 33.3359 186.719 33.1927 187.344 32.9062C187.969 32.5938 188.516 32.1901 188.984 31.6953C189.479 31.2005 189.857 30.6406 190.117 30.0156C190.404 29.3646 190.547 28.7005 190.547 28.0234V27.6328C190.547 27.1901 190.391 26.8255 190.078 26.5391C189.792 26.2526 189.427 26.0182 188.984 25.8359C188.542 25.6276 188.06 25.4323 187.539 25.25C187.018 25.0677 186.536 24.8594 186.094 24.625C185.651 24.3646 185.273 24.0521 184.961 23.6875C184.674 23.3229 184.531 22.8411 184.531 22.2422C184.531 21.6172 184.661 21.0182 184.922 20.4453C185.208 19.8724 185.573 19.3646 186.016 18.9219C187.552 17.4375 189.31 16.3698 191.289 15.7188C193.294 15.0417 195.352 14.7031 197.461 14.7031C197.617 14.7031 197.734 14.7682 197.812 14.8984C197.891 15.0026 197.93 15.1198 197.93 15.25Z" fill="#7C7685"/>
</svg>
