<svg width="40" height="33" viewBox="0 0 40 33" fill="none" xmlns="http://www.w3.org/2000/svg">
<path d="M35.9049 8.09143C35.9293 8.44406 35.9293 8.79669 35.9293 9.15257C35.9293 19.9964 27.6742 32.5026 12.5793 32.5026V32.4961C8.12025 32.5026 3.75381 31.2253 0 28.817C0.648385 28.895 1.30002 28.934 1.95328 28.9356C5.64859 28.9389 9.23827 27.699 12.1454 25.4158C8.63376 25.3492 5.55434 23.0595 4.47857 19.7169C5.70871 19.9541 6.97623 19.9054 8.18363 19.5755C4.35507 18.802 1.60065 15.4382 1.60065 11.5316C1.60065 11.4959 1.60065 11.4617 1.60065 11.4276C2.74142 12.063 4.01869 12.4156 5.32521 12.4546C1.71928 10.0447 0.607759 5.24763 2.78529 1.49707C6.95186 6.62403 13.0993 9.74083 19.6986 10.0707C19.0372 7.22041 19.9407 4.23362 22.0727 2.22996C25.378 -0.877087 30.5765 -0.717835 33.6835 2.58584C35.5214 2.22346 37.283 1.54908 38.895 0.593561C38.2823 2.49322 37.0002 4.10687 35.2874 5.13226C36.9141 4.9405 38.5034 4.505 40 3.84036C38.8982 5.49139 37.5105 6.92953 35.9049 8.09143Z" fill="black"/>
</svg>
